<?xml version="1.0" encoding="UTF-8" standalone="no"?>
<!-- Created with Inkscape (http://www.inkscape.org/) -->

<svg
   width="56.977703mm"
   height="68.306595mm"
   viewBox="0 0 56.977703 68.306595"
   version="1.1"
   id="svg5"
   xml:space="preserve"
   sodipodi:docname="favicon.svg"
   xmlns:inkscape="http://www.inkscape.org/namespaces/inkscape"
   xmlns:sodipodi="http://sodipodi.sourceforge.net/DTD/sodipodi-0.dtd"
   xmlns="http://www.w3.org/2000/svg"
   xmlns:svg="http://www.w3.org/2000/svg"><sodipodi:namedview
     id="namedview7"
     pagecolor="#ffffff"
     bordercolor="#000000"
     borderopacity="0.25"
     inkscape:showpageshadow="2"
     inkscape:pageopacity="0.0"
     inkscape:pagecheckerboard="0"
     inkscape:deskcolor="#d1d1d1"
     inkscape:document-units="mm"
     showgrid="false" /><defs
     id="defs2" /><g
     id="g467"
     transform="translate(-222.99872,-151.83004)"
     inkscape:export-filename="favicon.svg"
     inkscape:export-xdpi="96"
     inkscape:export-ydpi="96"><g
       id="g331"
       transform="translate(-75.219584,15.130415)"><path
         d="m 355.19601,176.51741 c 0,-15.73379 -12.755,-28.48889 -28.48882,-28.48889 -15.73388,0 -28.48888,12.7551 -28.48888,28.48889 0,15.73381 12.755,28.48881 28.48888,28.48881 15.73382,0 28.48882,-12.755 28.48882,-28.48881"
         style="fill:#1d1d76;fill-opacity:1;fill-rule:nonzero;stroke:none;stroke-width:0.352778"
         id="path236" /><path
         d="m 351.57919,177.14581 c 0,-12.47091 -10.1098,-22.5806 -22.5807,-22.5806 -12.47091,0 -22.58071,10.10969 -22.58071,22.5806 0,12.47101 10.1098,22.5807 22.58071,22.5807 12.4709,0 22.5807,-10.10969 22.5807,-22.5807"
         style="fill:#ffffff;fill-opacity:1;fill-rule:nonzero;stroke:none;stroke-width:0.352778"
         id="path238" /><g
         id="g240"
         transform="matrix(0.35277776,0,0,-0.35277778,220,297.00001)"><path
           d="m 289.709,331.134 c -4.1596,2.0403 -7.105,7.1109 -7.105,13.043 0,7.7335 5.0062,14.0029 11.1818,14.0029 4.86,0 8.996,-3.8829 10.5375,-9.3067 l 0.1582,9.6602 -0.005,-0.0213 c -0.2454,-1.1265 -1.2483,-1.9698 -2.4482,-1.9698 -0.582,0 -1.1177,0.1984 -1.5432,0.5312 -1.7187,0.9646 -3.6513,1.5803 -5.7064,1.7541 -0.3592,0.0306 -0.7217,0.0473 -1.088,0.0502 -0.038,2e-4 -0.0762,5e-4 -0.1142,5e-4 -7.9424,0 -14.3805,-6.582 -14.3805,-14.7013 0,-6.5829 4.2319,-12.1552 10.0662,-14.0284 0.1927,-0.062 0.3872,-0.1199 0.5836,-0.1735 1.1897,-0.3259 2.4404,-0.4997 3.7307,-0.4997 0.038,0 0.0762,3e-4 0.1142,6e-4 0.3663,0.003 0.7288,0.0198 1.088,0.0501 2.5562,0.2163 4.7806,1.1047 6.7818,2.509 l 0.1554,0.6469 c -2.0214,-1.785 -5.1027,-2.5079 -7.9305,-2.5079 -1.2325,0 -2.4185,0.2498 -3.5274,0.711 -0.1854,0.0771 -0.3685,0.1601 -0.5494,0.2489"
           style="fill:#231f20;fill-opacity:1;fill-rule:evenodd;stroke:none"
           id="path242" /></g><path
         d="m 328.20541,174.0995 c -2.13001,0 -3.85682,2.2545 -3.85682,5.03552 0,2.78108 1.72681,5.03558 3.85682,5.03558 2.13,0 3.85667,-2.2545 3.85667,-5.03558 0,-2.78102 -1.72667,-5.03552 -3.85667,-5.03552 z m -2.74423,5.03552 c 0,-2.55761 1.22862,-4.63092 2.74423,-4.63092 1.5156,0 2.74418,2.07331 2.74418,4.63092 0,2.55771 -1.22858,4.63098 -2.74418,4.63098 -1.51561,0 -2.74423,-2.07327 -2.74423,-4.63098"
         style="fill:#231f20;fill-opacity:1;fill-rule:evenodd;stroke:none;stroke-width:0.352778"
         id="path244" /><path
         d="m 333.28061,178.70071 c 7.70509,-3.64211 4.25347,-6.92499 1.70497,-6.7214 -0.46739,0.15229 -3.39478,1.4219 -3.58757,1.4962 -0.69822,0.12111 -2.41021,-0.49809 -2.65762,-0.72711 0,0 1.76562,0.14753 2.37861,0.11112 0.44178,-0.11211 3.23299,-1.37752 3.5645,-1.4702 4.80981,-1.34761 8.93209,5.02529 -1.55071,7.51061 0,0 0.0724,-0.066 0.14602,-0.19922 h 0.002 z"
         style="fill:#231f20;fill-opacity:1;fill-rule:nonzero;stroke:none;stroke-width:0.352778"
         id="path246" /><path
         d="m 332.28898,183.867 c 0.0319,-0.22849 1.16262,-0.41938 1.61192,-0.83898 0.34,-0.31732 0.4584,-1.5453 0.12601,-2.08601 -0.5013,-0.8153 -0.94121,-1.446 -1.05982,-2.47078 -0.2765,-2.3864 0.37691,-4.75223 1.3642,-5.15232 -1.67009,-0.89352 -3.26828,4.68369 -1.314,7.5117 1.31311,1.54971 -0.8038,2.47089 -0.62321,2.90569 0,0 -0.44337,0.55192 0.12213,-0.15209 z"
         style="fill:#231f20;fill-opacity:1;fill-rule:nonzero;stroke:none;stroke-width:0.352778"
         id="path248" /><path
         d="m 336.4501,182.16982 c -0.21131,-0.47921 -0.84811,-0.3604 -0.69299,-1.28182 0.30459,-1.80978 -1.4926,-1.97089 -2.211,-1.46889 0.48267,-1.35308 3.45059,-0.98891 2.49629,1.59932 -0.2497,0.67708 0.33468,0.52849 0.45868,1.23807 -0.007,-0.0175 -0.0438,-0.0758 -0.051,-0.0867"
         style="fill:#231f20;fill-opacity:1;fill-rule:nonzero;stroke:none;stroke-width:0.352778"
         id="path250" /><path
         d="m 338.3616,183.80399 c 0,0 1.1932,1.04652 -1.33971,1.85463 -4.71481,1.46971 -19.76671,1.85078 -23.98321,-0.10301 -1.47539,-0.67469 1.33921,-1.63061 2.24141,-1.7755 0.91489,-0.219 1.40871,-0.21689 1.40871,-0.21689 -1.6166,-1.19771 -10.76561,2.40881 -4.6482,3.4755 14.1521,2.50479 26.49661,0.021 27.34959,-2.09173 0.15981,-0.39567 -0.35168,-0.81149 -1.03921,-1.14317 z"
         style="fill:#231f20;fill-opacity:1;fill-rule:nonzero;stroke:none;stroke-width:0.352778"
         id="path252" /><path
         d="m 318.50871,181.56213 c 0,0 -1.10081,0.56398 0.56039,0.9174 1.99111,0.48059 3.08278,0.53908 5.4096,0.2861 0.4046,0.34498 0.8449,0.64579 1.3106,0.89387 -5.43821,1.86891 -11.46122,-1.2572 -7.28221,-2.09797 l 0.002,7e-4 z"
         style="fill:#231f20;fill-opacity:1;fill-rule:nonzero;stroke:none;stroke-width:0.352778"
         id="path254" /><path
         d="m 318.3284,178.26133 c 0.10979,0.72619 0.7105,0.95938 1.10399,1.58026 -3.96748,-0.15187 -6.13781,-1.21076 -1.9461,-2.88028 10e-4,-7.1e-4 0.003,-0.001 0.004,-0.002 l -0.001,-10e-4 c 0,0 -10e-4,7.1e-4 -0.004,0.003 -0.087,0.0703 -1.90009,1.26072 0.84212,1.30002"
         style="fill:#231f20;fill-opacity:1;fill-rule:evenodd;stroke:none;stroke-width:0.352778"
         id="path256" /><path
         d="m 317.6559,175.88001 0.002,0.2988 v -0.29849 c -7.1e-4,-2.1e-4 -10e-4,-2.1e-4 -0.002,-3.1e-4"
         style="fill:#231f20;fill-opacity:1;fill-rule:evenodd;stroke:none;stroke-width:0.352778"
         id="path258" /><path
         d="m 322.22628,170.29783 c 0,0 -11.9912,2.59358 -4.29119,3.48918 -0.17441,0.49181 -0.26811,0.84579 -0.15448,1.58729 -5.64571,-0.7989 -9.10403,-1.49888 -6.0035,-2.8805 5.72019,-2.4928 10.45108,-2.19248 10.45108,-2.19248 l -0.002,-0.004 z"
         style="fill:#231f20;fill-opacity:1;fill-rule:nonzero;stroke:none;stroke-width:0.352778"
         id="path260" /><path
         d="m 332.6751,142.85161 c 0,0 5.4072,4.979 -5.14421,12.4871 -8.4589,6.08531 -1.91759,9.56239 0,13.51492 -4.97141,-4.03091 -8.54558,-7.58783 -6.104,-10.90602 3.5742,-4.90199 13.42809,-7.2582 11.24821,-15.096"
         style="fill:#00aeef;fill-opacity:1;fill-rule:nonzero;stroke:none;stroke-width:0.352778"
         id="path262" /><path
         d="m 338.97991,162.0696 c -2.3665,-1.16 -4.62322,3.03872 -4.62322,3.03872 0,0 0.33499,-6.85429 3.5639,-5.64232 3.05922,1.06651 5.40219,-1.5281 6.94662,-10.67989 0,0 1.18879,11.32741 -5.8873,13.28349"
         style="fill:#00aeef;fill-opacity:1;fill-rule:nonzero;stroke:none;stroke-width:0.352778"
         id="path264" /><path
         d="m 340.01499,136.69962 c 0,0 -3.27568,1.47109 0.11039,6.7576 2.70312,4.2695 -0.81527,4.84329 -2.35867,6.40059 2.91627,-1.09361 5.12808,-2.19191 4.6204,-4.1638 -0.7354,-2.90791 -4.71033,-5.6401 -2.37212,-8.99439"
         style="fill:#00aeef;fill-opacity:1;fill-rule:nonzero;stroke:none;stroke-width:0.352778"
         id="path266" /><path
         d="m 328.4781,165.69471 c 2.5297,2.60749 0.9004,4.73269 0.9004,4.73269 0,0 0.20419,-0.0951 0.5231,-0.2721 1.4744,-0.81848 3.8053,-3.1449 1.36708,-6.19978 -2.70249,-3.55561 -1.20459,-6.70821 10.13393,-12.6352 0,0 -4.59193,1.6376 -6.00153,2.09829 -4.5618,1.49091 -13.44968,5.45451 -6.92298,12.2761"
         style="fill:#6c8cc7;fill-opacity:1;fill-rule:nonzero;stroke:none;stroke-width:0.352778"
         id="path268" /><path
         d="m 329.15388,165.69471 c 2.5297,2.60749 0.0496,4.81909 0.0496,4.81909 0,0 5.70671,-2.84247 2.74102,-6.55828 -2.70249,-3.55561 -1.9781,-6.67339 9.36039,-12.60041 0,0 -3.8184,1.60281 -5.22799,2.0635 -4.5618,1.49091 -13.44972,5.45451 -6.92302,12.2761"
         style="fill:#00aeef;fill-opacity:1;fill-rule:nonzero;stroke:none;stroke-width:0.352778"
         id="path270" /><path
         d="m 329.9004,165.5348 c 2.5297,2.60752 -0.69692,4.979 -0.69692,4.979 0,0 6.45312,-3.00239 3.48753,-6.7183 -2.70252,-3.55558 -2.62692,-6.54819 8.7116,-12.47518 0,0 -3.16971,1.47758 -4.5793,1.9383 -4.56181,1.49088 -13.44962,5.45448 -6.92291,12.27618"
         style="fill:#00aeef;fill-opacity:1;fill-rule:nonzero;stroke:none;stroke-width:0.352778"
         id="path272" /><path
         d="m 342.44461,149.658 c 0,0 -0.88191,0.39603 0.0297,1.81931 0.78122,0.90371 -0.64597,2.0581 -0.90777,2.58709 0.65197,-0.52729 1.70078,-1.70448 1.5167,-1.9849 -0.19802,-0.78278 -1.26813,-1.51839 -0.6386,-2.4215"
         style="fill:#00aeef;fill-opacity:1;fill-rule:nonzero;stroke:none;stroke-width:0.352778"
         id="path274" /><path
         d="m 335.82879,146.23962 c 0,0 0.88191,0.39599 -0.0297,1.81931 -0.72651,0.95927 -0.57161,1.62637 -0.36361,2.17879 -0.59637,-0.58942 -0.3725,-1.24171 -0.24529,-1.5766 0.19802,-0.78292 1.2681,-1.51839 0.6386,-2.4215 z"
         style="fill:#00aeef;fill-opacity:1;fill-rule:nonzero;stroke:#00aeef;stroke-width:0.0762;stroke-linecap:butt;stroke-linejoin:miter;stroke-miterlimit:22.9256;stroke-dasharray:none;stroke-opacity:1"
         id="path276" /><path
         d="m 319.19218,191.3968 c 8.02573,0.65182 20.29033,-0.373 20.5867,-5.12509 0,0 -0.5939,1.86482 -6.61437,3.25939 -6.838,1.58263 -15.31041,1.3946 -20.2904,0.37302 0,0 1.04048,1.11559 6.31807,1.49021 z"
         style="fill:#231f20;fill-opacity:1;fill-rule:nonzero;stroke:none;stroke-width:0.352778"
         id="path278" /></g></g></svg>
